<svg id="logo" width="86" height="16" xmlns="http://www.w3.org/2000/svg" xmlns:xlink="http://www.w3.org/1999/xlink"><defs><path d="M40.776 27.673c.39.09.79.13 1.19.12 1.734 0 2.788-.866 2.788-2.446 0-1.51-1.04-2.241-2.626-2.241a5.856 5.856 0 0 0-1.352.12zm-1.436-5.516a16.22 16.22 0 0 1 2.757-.222c1.415 0 2.477.338 3.121.949a3.115 3.115 0 0 1 .973 2.393c.044.9-.266 1.78-.86 2.443-.76.833-1.996 1.255-3.4 1.255a4.825 4.825 0 0 1-1.158-.102v4.556H39.34z" id="Path-0"/><path d="M47.596 27.797c0-.968 0-1.797-.067-2.546h1.27l.05 1.611h.067c.28-1.028 1.174-1.754 2.212-1.796.14-.002.28.015.414.05v1.404a2.128 2.128 0 0 0-.495-.05c-1.026-.012-1.734.777-1.95 1.905a4.21 4.21 0 0 0-.067.69v4.364h-1.434z" id="Path-1"/><path d="M57.693 28.545c0-.949-.378-2.425-2.013-2.425-1.47 0-2.124 1.39-2.23 2.425zm-4.247 1.07c.032 2.018 1.289 2.85 2.74 2.85a5.13 5.13 0 0 0 2.212-.425l.247 1.07a6.318 6.318 0 0 1-2.658.508c-2.477 0-3.928-1.662-3.928-4.138s1.42-4.415 3.748-4.415c2.608 0 3.302 2.357 3.302 3.87-.003.232-.02.464-.05.694z" id="Path-2"/><path d="M60.38 31.92c.575.37 1.236.574 1.914.593 1.062 0 1.55-.542 1.55-1.222 0-.68-.414-1.09-1.486-1.509-1.437-.527-2.124-1.338-2.124-2.324 0-1.323 1.04-2.407 2.757-2.407a3.904 3.904 0 0 1 1.965.51l-.354 1.09a3.047 3.047 0 0 0-1.628-.494c-.86 0-1.338.509-1.338 1.12 0 .68.478.985 1.518 1.389 1.377.556 2.085 1.269 2.085 2.49 0 1.455-1.09 2.459-2.987 2.459a4.46 4.46 0 0 1-2.233-.55z" id="Path-3"/><path d="M71.163 29.24c-1.585-.032-3.383.255-3.383 1.85-.036.384.093.764.353 1.042s.625.425.999.403a1.992 1.992 0 0 0 1.932-1.376c.051-.154.079-.314.081-.477zm.216 4.19l-.124-1.019h-.05a2.949 2.949 0 0 1-2.441 1.222c-1.618 0-2.442-1.17-2.442-2.356 0-1.986 1.716-3.07 4.802-3.055v-.17c0-.68-.18-1.899-1.815-1.899a3.903 3.903 0 0 0-2.081.611l-.326-.97a4.854 4.854 0 0 1 2.626-.728c2.442 0 3.037 1.713 3.037 3.36v3.07a11.86 11.86 0 0 0 .13 1.966z" id="Path-4"/><path d="M74.575 21.404h1.45v12.025h-1.45z" id="Path-5"/><path d="M83.267 28.545c0-.949-.379-2.425-2.014-2.425-1.469 0-2.123 1.39-2.23 2.425zm-4.247 1.07c.032 2.018 1.288 2.85 2.74 2.85a5.13 5.13 0 0 0 2.211-.425l.248 1.07a6.318 6.318 0 0 1-2.658.508c-2.477 0-3.928-1.662-3.928-4.138s1.408-4.415 3.747-4.415c2.609 0 3.302 2.357 3.302 3.87a5.557 5.557 0 0 1-.05.694z" id="Path-6"/><path d="M87.754 27.673c.39.09.79.13 1.19.12 1.734 0 2.788-.866 2.788-2.446 0-1.51-1.04-2.241-2.626-2.241a5.856 5.856 0 0 0-1.352.12zm-1.436-5.516a16.22 16.22 0 0 1 2.756-.222c1.416 0 2.478.338 3.122.949a3.115 3.115 0 0 1 .973 2.393c.044.9-.266 1.78-.86 2.443-.76.833-1.996 1.255-3.4 1.255a4.825 4.825 0 0 1-1.158-.102v4.556h-1.437z" id="Path-7"/><path d="M94.578 27.797c0-.968 0-1.797-.067-2.546h1.27l.05 1.611h.067c.28-1.028 1.173-1.754 2.212-1.796.14-.002.279.015.414.05v1.404a2.128 2.128 0 0 0-.496-.05c-1.022 0-1.748.796-1.946 1.916a4.317 4.317 0 0 0-.053.68v4.363h-1.451z" id="Path-8"/><path d="M100.502 29.356c0 1.797 1.009 3.157 2.428 3.157 1.42 0 2.428-1.342 2.428-3.19 0-1.388-.676-3.156-2.393-3.156-1.716 0-2.463 1.63-2.463 3.193zm6.339-.083c0 3.036-2.046 4.363-3.978 4.363-2.163 0-3.83-1.629-3.83-4.221 0-2.75 1.749-4.364 3.964-4.364 2.294.014 3.844 1.713 3.844 4.222z" id="Path-9"/><path d="M21.375 32.982l2.683 2.76.378.033.429-.233-2.672-2.746-.818.186z" id="Path-10"/><path d="M28.582 20.004H23.78c-.177 0-.234.054-.251.24l-.089.545h4.948c1.946 0 2.966 1.193 2.608 3.211-.357 2.018-1.752 3.175-3.716 3.175h-4.955l-.97 5.621c-.035.182 0 .24.178.24h.389c.16 0 .233-.054.269-.24l.82-4.821h4.216c2.428 0 4.144-1.379 4.6-3.855.457-2.476-.813-4.116-3.245-4.116z" id="Path-11"/><path d="M27.225 27.975c2.428 0 4.145-1.379 4.601-3.855.457-2.476-.814-4.116-3.245-4.116l-.198.789c1.946 0 2.965 1.192 2.608 3.21-.358 2.019-1.752 3.175-3.716 3.175z" id="Path-12"/><path d="M31.265 22.75h-4.813c-.177 0-.234.054-.251.24l-.089.545h4.948c1.946 0 2.966 1.192 2.608 3.21-.357 2.019-1.752 3.175-3.716 3.175h-4.955l-.955 5.622c-.036.182 0 .24.177.24h.375c.16 0 .233-.055.269-.24l.82-4.826H29.9c2.428 0 4.144-1.378 4.6-3.854.457-2.477-.813-4.113-3.234-4.113z" id="Path-13"/><path d="M28.58 20h-4.802c-.177 0-.233.055-.251.24l-.089.545h4.948" id="Path-14"/><path d="M24.54 20.793l-.542-.564c-.206-.204-.096-.225-.096-.225h-.124c-.177 0-.233.054-.251.24l-.089.545 2.672 2.746.354-.782z" id="Path-15"/><linearGradient id="LinearGradient1193" gradientUnits="userSpaceOnUse" x1="21.375" y1="34.287" x2="24.865" y2="34.287"><stop stop-opacity="0" offset="0"/><stop stop-opacity=".05" stop-color="#f9f9f9" offset=".14"/><stop stop-opacity=".19" stop-color="#e8e8e8" offset=".33"/><stop stop-opacity=".42" stop-color="#cbcbcb" offset=".57"/><stop stop-opacity=".74" stop-color="#a4a4a4" offset=".82"/><stop stop-color="#858585" offset="1"/></linearGradient><linearGradient id="LinearGradient1210" gradientUnits="userSpaceOnUse" x1="29.72" y1="20.262" x2="29.547" y2="26.505"><stop stop-opacity="0" offset="0"/><stop stop-opacity=".29" stop-color="#dbdbdb" offset=".09"/><stop stop-opacity=".6" stop-color="#b6b6b6" offset=".33"/><stop stop-opacity=".82" stop-color="#9b9b9b" offset=".39"/><stop stop-opacity=".95" stop-color="#8b8b8b" offset=".41"/><stop stop-color="#858585" offset=".46"/><stop stop-opacity=".98" stop-color="#888" offset=".49"/><stop stop-opacity=".91" stop-color="#909090" offset=".54"/><stop stop-opacity=".78" stop-color="#9f9f9f" offset=".57"/><stop stop-opacity=".58" stop-color="#b8b8b8" offset=".67"/><stop stop-opacity=".13" stop-color="#f0f0f0" offset=".97"/><stop stop-opacity="0" offset="1"/></linearGradient><linearGradient id="LinearGradient1233" gradientUnits="userSpaceOnUse" x1="29.837" y1="19.4" x2="23.683" y2="21.015"><stop stop-opacity="0" offset="0"/><stop stop-opacity=".05" stop-color="#f9f9f9" offset=".14"/><stop stop-opacity=".19" stop-color="#e8e8e8" offset=".33"/><stop stop-opacity=".42" stop-color="#cbcbcb" offset=".57"/><stop stop-opacity=".74" stop-color="#a4a4a4" offset=".82"/><stop stop-color="#858585" offset="1"/></linearGradient></defs><g transform="translate(-21 -20)"><use xlink:href="#Path-0"/><use xlink:href="#Path-1"/><use xlink:href="#Path-2"/><use xlink:href="#Path-3"/><use xlink:href="#Path-4"/><use xlink:href="#Path-5"/><use xlink:href="#Path-6"/><use xlink:href="#Path-7"/><use xlink:href="#Path-8"/><use xlink:href="#Path-9"/><use xlink:href="#Path-10"/><use xlink:href="#Path-10" fill="url(#LinearGradient1193)"/><use xlink:href="#Path-11"/><use xlink:href="#Path-12" fill="url(#LinearGradient1210)"/><use xlink:href="#Path-13"/><use xlink:href="#Path-14" fill="url(#LinearGradient1233)"/><use xlink:href="#Path-15"/></g></svg>