<svg width="452" height="651" viewBox="0 0 452 651" fill="none" xmlns="http://www.w3.org/2000/svg">
<path fill-rule="evenodd" clip-rule="evenodd" d="M0.864624 3.99609V192.738C0.864624 228.45 19.9093 261.451 50.8297 279.32L694 651V0.964844L0.864624 3.99609Z" fill="url(#paint0_linear)"/>
<mask id="mask0" mask-type="alpha" maskUnits="userSpaceOnUse" x="0" y="0" width="694" height="651">
<path fill-rule="evenodd" clip-rule="evenodd" d="M0.864624 3.99609V192.738C0.864624 228.45 19.9093 261.451 50.8297 279.32L694 651V0.964844L0.864624 3.99609Z" fill="white"/>
</mask>
<g mask="url(#mask0)">
<path fill-rule="evenodd" clip-rule="evenodd" d="M179.076 517.054C164.404 508.588 164.403 487.413 179.073 478.945L566.04 255.584C572.84 251.659 581.215 251.655 588.018 255.574L680.004 308.555C686.809 312.474 691.009 319.724 691.024 327.578L691.864 774.827C691.896 791.779 673.551 802.396 658.868 793.923L179.076 517.054Z" fill="url(#paint1_linear)" fill-opacity="0.24" style="mix-blend-mode:screen"/>
<path fill-rule="evenodd" clip-rule="evenodd" d="M87.8679 87.0778C65.4378 87.226 57.5873 116.913 77.0119 128.129L279.653 245.143C286.454 249.07 294.833 249.074 301.637 245.153L509.439 125.428C529.017 114.148 520.906 84.2171 498.311 84.3663L87.8679 87.0778Z" fill="url(#paint2_linear)" fill-opacity="0.24" style="mix-blend-mode:screen"/>
</g>
<defs>
<linearGradient id="paint0_linear" x1="1064.86" y1="738.251" x2="845.436" y2="-27.2082" gradientUnits="userSpaceOnUse">
<stop stop-color="#00B5F4"/>
<stop offset="0.306" stop-color="#3973C6"/>
<stop offset="0.608361" stop-color="#5158B3"/>
<stop offset="1" stop-color="#6541A3"/>
</linearGradient>
<linearGradient id="paint1_linear" x1="682.145" y1="202.717" x2="195.276" y2="172.261" gradientUnits="userSpaceOnUse">
<stop stop-color="#3973C6" stop-opacity="0.01"/>
<stop offset="1" stop-color="#6541A3"/>
</linearGradient>
<linearGradient id="paint2_linear" x1="-619.119" y1="175.112" x2="-513.366" y2="508.032" gradientUnits="userSpaceOnUse">
<stop stop-color="#00B5F4"/>
<stop offset="1" stop-color="white" stop-opacity="0.01"/>
</linearGradient>
</defs>
</svg>
