<svg id="SVGDoc" width="11" height="15" xmlns="http://www.w3.org/2000/svg" version="1.1" xmlns:xlink="http://www.w3.org/1999/xlink" xmlns:avocode="https://avocode.com/" viewBox="0 0 11 15"><defs><path d="M263.45833,1639c-0.253,0 -0.45833,0.20512 -0.45833,0.45991v13.95662c0.00913,0.18991 0.10784,0.34007 0.25758,0.413c0.03204,0.01588 0.06525,0.02771 0.099,0.03555c0.03377,0.00769 0.06787,0.01136 0.10175,0.01136c0.09158,0 0.18315,-0.02781 0.26131,-0.08203c0.00711,-0.00494 4.75103,-3.71771 4.75103,-3.71771l4.73091,3.70224c0.0109,0.00849 0.02208,0.01643 0.03351,0.02383c0.07534,0.04871 0.16209,0.07367 0.24883,0.07367c0.03388,0 0.06798,-0.00367 0.10175,-0.01136c0.03375,-0.00784 0.06696,-0.01967 0.099,-0.03555c0.15457,-0.07529 0.25477,-0.23286 0.25752,-0.40568c0.00004,-0.00244 0.00006,-13.96394 0.00006,-13.96394c0,-0.25479 -0.20533,-0.45991 -0.45833,-0.45991h-5.01279z" id="Path-0"/><path d="M264,1652.55483l4.27258,-3.34443c0.08342,-0.06439 0.18242,-0.0975 0.28234,-0.0975c0.099,0 0.19891,0.03311 0.28141,0.0975l4.17232,3.34443v-12.55483h-9.00865v7.4646z" id="Path-1"/></defs><desc>Generated with Avocode.</desc><g transform="matrix(1,0,0,1,-263,-1639)"><g><title>noun_340055_cc copy 3</title><g><title>noun_340055_cc copy 3</title><g><title>Group</title><g><title>Shape</title><use xlink:href="#Path-0" fill="#000000" fill-opacity="1"/></g><g><title>Path</title><use xlink:href="#Path-1" fill="#ffffff" fill-opacity="1"/></g></g></g></g></g></svg>