<svg id="SVGDoc" width="17" height="17" xmlns="http://www.w3.org/2000/svg" version="1.1" xmlns:xlink="http://www.w3.org/1999/xlink" xmlns:avocode="https://avocode.com/" viewBox="0 0 17 17"><defs><path d="M55.5,1640.96324c-0.26826,0 -0.48571,0.21439 -0.48571,0.47887v5.02818c0,0.17708 0.09789,0.32867 0.24285,0.41154c1.32819,0.75506 2.66762,1.51705 3.99957,2.27465c0.23229,0.13224 0.52612,0.05694 0.66025,-0.17211c0.13413,-0.22904 0.05776,-0.51871 -0.17454,-0.65096l-3.75671,-2.13996v-4.75134c0,-0.26448 -0.21745,-0.47887 -0.48571,-0.47887zM63.02857,1646.46529c0,4.10223 -3.36493,7.41753 -7.52857,7.41753c-4.16364,0 -7.52857,-3.31531 -7.52857,-7.41753c0,-4.10225 3.36493,-7.41754 7.52857,-7.41754c4.16364,0 7.52857,3.3153 7.52857,7.41754zM47,1646.47029c0,4.62261 3.81135,8.38028 8.5,8.38028c4.68865,0 8.5,-3.75767 8.5,-8.38028c0,-4.62262 -3.81135,-8.38029 -8.5,-8.38029c-4.68865,0 -8.5,3.75767 -8.5,8.38029z" id="Path-0"/></defs><desc>Generated with Avocode.</desc><g transform="matrix(1,0,0,1,-47,-1638)"><g clip-path="url(#clip-4C62723A-56C3-4F33-8456-A9FB33F3D946)"><title>Shape</title><use xlink:href="#Path-0" fill="#000000" fill-opacity="1"/></g></g></svg>