<svg id="SVGDoc" width="15" height="14" xmlns="http://www.w3.org/2000/svg" version="1.1" xmlns:xlink="http://www.w3.org/1999/xlink" xmlns:avocode="https://avocode.com/" viewBox="0 0 15 14"><defs><path d="M285.88799,718.78456c0.06149,-0.00493 0.11788,-0.03537 0.15489,-0.08364c0.03702,-0.04826 0.05112,-0.10971 0.03874,-0.16881l-0.9888,-4.6977l3.62216,-3.23111c0.06302,-0.05571 0.08672,-0.1424 0.06052,-0.22142c-0.0262,-0.07902 -0.09741,-0.13563 -0.18187,-0.14459l-4.87427,-0.53516l-2.02406,-4.3645c-0.03504,-0.07516 -0.11174,-0.12339 -0.19621,-0.12339c-0.08448,0 -0.16117,0.04823 -0.19621,0.12339l-2.02408,4.3645l-4.87427,0.53516c-0.08446,0.00896 -0.15567,0.06558 -0.18187,0.1446c-0.0262,0.07902 -0.0025,0.16572 0.06053,0.22142l3.62215,3.23111l-0.9888,4.6977c-0.01771,0.08123 0.015,0.16506 0.08355,0.21411c0.06855,0.04905 0.16017,0.05417 0.234,0.01309l4.26499,-2.37033l4.26499,2.37033c0.03779,0.02035 0.08096,0.02914 0.12392,0.02524z" id="Path-0"/></defs><desc>Generated with Avocode.</desc><g transform="matrix(1,0,0,1,-274,-705)"><g><title>Shape</title><use xlink:href="#Path-0" fill="#f5a623" fill-opacity="1"/></g></g></svg>