<svg id="logo" width="86" height="16" xmlns="http://www.w3.org/2000/svg" version="1.1" xmlns:xlink="http://www.w3.org/1999/xlink" xmlns:avocode="https://avocode.com/" viewBox="0 0 86 16"><defs><path d="M40.77646,27.67285c0.38999,0.09063 0.78944,0.13097 1.18914,0.12009c1.73416,0 2.78881,-0.86613 2.78881,-2.44553c0,-1.51026 -1.04049,-2.24174 -2.62601,-2.24174c-0.45361,-0.01252 -0.90714,0.02777 -1.35193,0.12009zM39.33959,22.15657c0.91141,-0.15234 1.83357,-0.22653 2.75695,-0.22182c1.41564,0 2.47737,0.33818 3.12148,0.94909c0.65213,0.61095 1.00833,1.48667 0.97325,2.39273c0.04348,0.90003 -0.26633,1.78034 -0.86,2.44364c-0.76091,0.83273 -1.99605,1.25455 -3.40107,1.25455c-0.38831,0.0128 -0.77674,-0.02137 -1.15728,-0.10182v4.55636h-1.43333z" id="Path-0"/><path d="M47.5963,27.79652c0,-0.96727 0,-1.79636 -0.06724,-2.54545h1.27053l0.04955,1.61091h0.06724c0.28011,-1.02832 1.17348,-1.75386 2.21193,-1.79636c0.13961,-0.00201 0.27886,0.01511 0.41407,0.05091v1.40364c-0.16273,-0.03632 -0.32897,-0.0534 -0.49547,-0.05091c-1.02634,-0.01091 -1.73416,0.77818 -1.95004,1.90545c-0.04092,0.228 -0.06341,0.4591 -0.06724,0.69091v4.36364h-1.43333z" id="Path-1"/><path d="M57.69333,28.54545c0,-0.94909 -0.37868,-2.42545 -2.01374,-2.42545c-1.46872,0 -2.12346,1.38909 -2.22963,2.42545zM53.44642,29.61455c0.03185,2.01818 1.28823,2.85091 2.73926,2.85091c0.75857,0.02405 1.5132,-0.12109 2.21193,-0.42545l0.24774,1.06909c-0.84117,0.36014 -1.7469,0.53362 -2.65786,0.50909c-2.47737,0 -3.9284,-1.66182 -3.9284,-4.13818c0,-2.47636 1.41918,-4.41455 3.7479,-4.41455c2.60831,0 3.30198,2.35636 3.30198,3.86909c-0.0025,0.23235 -0.01905,0.46431 -0.04955,0.69455z" id="Path-2"/><path d="M60.37951,31.92019c0.57543,0.36929 1.23644,0.57392 1.91465,0.59273c1.06173,0 1.55012,-0.54182 1.55012,-1.22182c0,-0.68 -0.41407,-1.09091 -1.48642,-1.50909c-1.43687,-0.52727 -2.12346,-1.33818 -2.12346,-2.32364c0,-1.32364 1.04049,-2.40727 2.75695,-2.40727c0.68646,-0.00681 1.36302,0.16854 1.9642,0.50909l-0.35391,1.09091c-0.48746,-0.31692 -1.05116,-0.48816 -1.62798,-0.49455c-0.86,0 -1.33778,0.50909 -1.33778,1.12c0,0.68 0.47778,0.98545 1.51827,1.38909c1.37671,0.55636 2.08453,1.26909 2.08453,2.49091c0,1.45455 -1.09004,2.45818 -2.987,2.45818c-0.77779,0.01576 -1.54658,-0.17326 -2.23317,-0.54909z" id="Path-3"/><path d="M71.16313,29.24056c-1.58551,-0.03276 -3.38337,0.25483 -3.38337,1.84931c-0.03571,0.38374 0.09326,0.76438 0.35311,1.04216c0.25985,0.27778 0.62466,0.425 0.99882,0.40307c0.86687,0.02366 1.64873,-0.53312 1.93235,-1.37606c0.05107,-0.15364 0.07853,-0.31454 0.0814,-0.47689zM71.37901,33.42964l-0.12387,-1.01818h-0.04955c-0.57514,0.78739 -1.48403,1.24215 -2.44198,1.22182c-1.61737,0 -2.44198,-1.17091 -2.44198,-2.35636c0,-1.98545 1.71646,-3.06909 4.80255,-3.05455v-0.17091c0,-0.68 -0.18049,-1.89818 -1.81556,-1.89818c-0.73525,0.0023 -1.45553,0.21375 -2.08099,0.61091l-0.3256,-0.97091c0.79218,-0.48936 1.70178,-0.74127 2.62601,-0.72727c2.44198,0 3.03654,1.71273 3.03654,3.36v3.06909c-0.01103,0.6584 0.03278,1.31655 0.13095,1.96727z" id="Path-4"/><path d="M74.57481,21.40364h1.45103v12.02545h-1.45103z" id="Path-5"/><path d="M83.26683,28.54545c0,-0.94909 -0.37868,-2.42545 -2.01374,-2.42545c-1.46872,0 -2.12346,1.38909 -2.22963,2.42545zM79.01992,29.61455c0.03185,2.01818 1.28823,2.85091 2.73926,2.85091c0.75857,0.02405 1.5132,-0.12109 2.21193,-0.42545l0.24774,1.06909c-0.84117,0.36014 -1.7469,0.53362 -2.65786,0.50909c-2.47737,0 -3.9284,-1.66182 -3.9284,-4.13818c0,-2.47636 1.40856,-4.41455 3.7479,-4.41455c2.60831,0 3.30198,2.35636 3.30198,3.86909c-0.0025,0.23235 -0.01905,0.46431 -0.04955,0.69455z" id="Path-6"/><path d="M87.7544,27.67285c0.38999,0.09063 0.78944,0.13097 1.18914,0.12009c1.73416,0 2.78881,-0.86613 2.78881,-2.44553c0,-1.51026 -1.04049,-2.24174 -2.62601,-2.24174c-0.45361,-0.01252 -0.90714,0.02777 -1.35193,0.12009zM86.31753,22.15657c0.91141,-0.15234 1.83357,-0.22653 2.75695,-0.22182c1.41564,0 2.47737,0.33818 3.12148,0.94909c0.65213,0.61095 1.00833,1.48667 0.97325,2.39273c0.04348,0.90003 -0.26633,1.78034 -0.86,2.44364c-0.76091,0.83273 -1.99605,1.25455 -3.40107,1.25455c-0.38831,0.0128 -0.77674,-0.02137 -1.15728,-0.10182v4.55636h-1.43687z" id="Path-7"/><path d="M94.57778,27.79652c0,-0.96727 0,-1.79636 -0.06724,-2.54545h1.27053l0.04955,1.61091h0.06724c0.28011,-1.02832 1.17348,-1.75386 2.21193,-1.79636c0.13961,-0.00201 0.27886,0.01511 0.41407,0.05091v1.40364c-0.16273,-0.03632 -0.32897,-0.0534 -0.49547,-0.05091c-1.0228,0 -1.74831,0.79636 -1.9465,1.91636c-0.0356,0.22482 -0.05335,0.45223 -0.05309,0.68v4.36364h-1.45103z" id="Path-8"/><path d="M100.50222,29.35636c0,1.79636 1.00864,3.15636 2.42782,3.15636c1.41918,0 2.42782,-1.34182 2.42782,-3.18909c0,-1.38909 -0.67597,-3.15636 -2.39243,-3.15636c-1.71646,0 -2.46321,1.62909 -2.46321,3.19273zM106.84074,29.27273c0,3.03636 -2.0456,4.36364 -3.97794,4.36364c-2.16239,0 -3.8293,-1.62909 -3.8293,-4.22182c0,-2.74909 1.74831,-4.36364 3.96379,-4.36364c2.29333,0.01455 3.84346,1.71273 3.84346,4.22182z" id="Path-9"/><path d="M21.37514,32.98182l2.68263,2.76l0.37868,0.03273l0.42823,-0.23273l-2.67202,-2.74545l-0.81753,0.18545z" id="Path-10"/><path d="M28.58246,20.00364h-4.80255c-0.17695,0 -0.23358,0.05455 -0.25128,0.24l-0.08848,0.54545h0.80337h4.14428c1.9465,0 2.96576,1.19273 2.60831,3.21091c-0.35745,2.01818 -1.75185,3.17455 -3.71605,3.17455h-4.95473l-0.96971,5.62182c-0.03539,0.18182 0,0.24 0.17695,0.24h0.3893c0.15926,0 0.23358,-0.05455 0.26897,-0.24l0.82107,-4.82182h4.21506c2.42782,0 4.14428,-1.37818 4.60082,-3.85455c0.45654,-2.47636 -0.81399,-4.11636 -3.24535,-4.11636z" id="Path-11"/><path d="M27.22527,27.97455c2.42782,0 4.14428,-1.37818 4.60082,-3.85455c0.45654,-2.47636 -0.81399,-4.11636 -3.24535,-4.11636l-0.19819,0.78909c1.9465,0 2.96576,1.19273 2.60831,3.21091c-0.35745,2.01818 -1.75185,3.17455 -3.71605,3.17455z" id="Path-12"/><path d="M31.26509,22.74909h-4.81317c-0.17695,0 -0.23358,0.05455 -0.25128,0.24l-0.08848,0.54545h0.80337h4.14428c1.9465,0 2.96576,1.19273 2.60831,3.21091c-0.35745,2.01818 -1.75185,3.17455 -3.71605,3.17455h-4.95473l-0.95556,5.62182c-0.03539,0.18182 0,0.24 0.17695,0.24h0.37514c0.15926,0 0.23358,-0.05455 0.26897,-0.24l0.82107,-4.82545h4.21506c2.42782,0 4.14428,-1.37818 4.60082,-3.85455c0.45654,-2.47636 -0.81399,-4.11273 -3.23473,-4.11273z" id="Path-13"/><path d="M28.58074,20h-4.80255c-0.17695,0 -0.23358,0.05455 -0.25128,0.24l-0.08848,0.54545h0.80337h4.14428" id="Path-14"/><path d="M24.53909,20.79273v0l-0.54148,-0.56364c-0.20527,-0.20364 -0.09556,-0.22545 -0.09556,-0.22545h-0.12387c-0.17695,0 -0.23358,0.05455 -0.25128,0.24l-0.08848,0.54545l2.67202,2.74545l0.35391,-0.78182z" id="Path-15"/><linearGradient id="LinearGradient1193" gradientUnits="userSpaceOnUse" x1="21.37514403292181" y1="34.28727272727273" x2="24.864691358024686" y2="34.28727272727273"><stop stop-opacity="0" stop-color="" offset="0"></stop><stop stop-opacity="0.05" stop-color="#f9f9f9" offset="0.14"></stop><stop stop-opacity="0.19" stop-color="#e8e8e8" offset="0.33"></stop><stop stop-opacity="0.42" stop-color="#cbcbcb" offset="0.57"></stop><stop stop-opacity="0.74" stop-color="#a4a4a4" offset="0.82"></stop><stop stop-opacity="1" stop-color="#858585" offset="1"></stop></linearGradient><linearGradient id="LinearGradient1210" gradientUnits="userSpaceOnUse" x1="29.72040956857925" y1="20.26181818181818" x2="29.546988346076414" y2="26.505454545454548"><stop stop-opacity="0" stop-color="" offset="0"></stop><stop stop-opacity="0.29" stop-color="#dbdbdb" offset="0.09"></stop><stop stop-opacity="0.6" stop-color="#b6b6b6" offset="0.33"></stop><stop stop-opacity="0.82" stop-color="#9b9b9b" offset="0.39"></stop><stop stop-opacity="0.95" stop-color="#8b8b8b" offset="0.41"></stop><stop stop-opacity="1" stop-color="#858585" offset="0.46"></stop><stop stop-opacity="0.98" stop-color="#888888" offset="0.49"></stop><stop stop-opacity="0.91" stop-color="#909090" offset="0.54"></stop><stop stop-opacity="0.78" stop-color="#9f9f9f" offset="0.57"></stop><stop stop-opacity="0.58" stop-color="#b8b8b8" offset="0.67"></stop><stop stop-opacity="0.13" stop-color="#f0f0f0" offset="0.97"></stop><stop stop-opacity="0" stop-color="" offset="1"></stop></linearGradient><linearGradient id="LinearGradient1233" gradientUnits="userSpaceOnUse" x1="29.8371193415638" y1="19.400000000000002" x2="23.68263374485597" y2="21.01454545454545"><stop stop-opacity="0" stop-color="" offset="0"></stop><stop stop-opacity="0.05" stop-color="#f9f9f9" offset="0.14"></stop><stop stop-opacity="0.19" stop-color="#e8e8e8" offset="0.33"></stop><stop stop-opacity="0.42" stop-color="#cbcbcb" offset="0.57"></stop><stop stop-opacity="0.74" stop-color="#a4a4a4" offset="0.82"></stop><stop stop-opacity="1" stop-color="#858585" offset="1"></stop></linearGradient></defs><desc>Generated with Avocode.</desc><g transform="matrix(1,0,0,1,-21,-20)"><g><title>logo_ps</title><g><title>logo_ps</title><g><title>Shape</title><use xlink:href="#Path-0" fill="" fill-opacity="1"/></g><g><title>Shape</title><use xlink:href="#Path-1" fill="" fill-opacity="1"/></g><g><title>Shape</title><use xlink:href="#Path-2" fill="" fill-opacity="1"/></g><g><title>Shape</title><use xlink:href="#Path-3" fill="" fill-opacity="1"/></g><g><title>Shape</title><use xlink:href="#Path-4" fill="" fill-opacity="1"/></g><g><title>Shape</title><use xlink:href="#Path-5" fill="" fill-opacity="1"/></g><g><title>Shape</title><use xlink:href="#Path-6" fill="" fill-opacity="1"/></g><g><title>Shape</title><use xlink:href="#Path-7" fill="" fill-opacity="1"/></g><g><title>Shape</title><use xlink:href="#Path-8" fill="" fill-opacity="1"/></g><g><title>Shape</title><use xlink:href="#Path-9" fill="" fill-opacity="1"/></g><g><title>Shape</title><use xlink:href="#Path-10" fill="" fill-opacity="1"/></g><g><title>Shape</title><use xlink:href="#Path-10" fill="url(#LinearGradient1193)"/></g><g><title>Shape</title><use xlink:href="#Path-11" fill="" fill-opacity="1"/></g><g><title>Shape</title><use xlink:href="#Path-12" fill="url(#LinearGradient1210)"/></g><g><title>Shape</title><use xlink:href="#Path-13" fill="" fill-opacity="1"/></g><g><title>Shape</title><use xlink:href="#Path-14" fill="url(#LinearGradient1233)"/></g><g><title>Shape</title><use xlink:href="#Path-15" fill="" fill-opacity="1"/></g></g></g></g></svg>